<svg class="plot-svg" viewBox="0 0 400 250" xmlns="http://www.w3.org/2000/svg"><rect width="400" height="250" fill="#fafafa"/><text x="35" y="44.0" class="barbell-label" text-anchor="end" font-size="9px">5</text><text x="35" y="86.5" class="barbell-label" text-anchor="end" font-size="9px">10</text><text x="35" y="129.0" class="barbell-label" text-anchor="end" font-size="9px">15</text><text x="35" y="171.5" class="barbell-label" text-anchor="end" font-size="9px">20</text><text x="35" y="214.0" class="barbell-label" text-anchor="end" font-size="9px">30</text><line x1="40" y1="40" x2="40" y2="210" stroke="#ddd" stroke-width="1"/><line x1="360" y1="40" x2="360" y2="210" stroke="#ddd" stroke-width="1"/><line x1="40" y1="40.0" x2="66.66666666666667" y2="40.0" class="barbell-line"/><circle cx="66.66666666666667" cy="40.0" r="5" class="barbell-dot"/><text x="74.66666666666667" y="44.0" class="barbell-label" font-size="9px">0.823</text><line x1="40" y1="82.5" x2="228.21896039810974" y2="82.5" class="barbell-line"/><circle cx="228.21896039810974" cy="82.5" r="5" class="barbell-dot"/><text x="236.21896039810974" y="86.5" class="barbell-label" font-size="9px">0.872</text><line x1="40" y1="125.0" x2="298.4736335884248" y2="125.0" class="barbell-line"/><circle cx="298.4736335884248" cy="125.0" r="5" class="barbell-dot"/><text x="306.4736335884248" y="129.0" class="barbell-label" font-size="9px">0.893</text><line x1="40" y1="167.5" x2="331.69405762555937" y2="167.5" class="barbell-line"/><circle cx="331.69405762555937" cy="167.5" r="5" class="barbell-dot"/><text x="339.69405762555937" y="171.5" class="barbell-label" font-size="9px">0.903</text><line x1="40" y1="210.0" x2="333.33333333333337" y2="210.0" class="barbell-line"/><circle cx="333.33333333333337" cy="210.0" r="6" class="barbell-dot-best"/><text x="341.33333333333337" y="214.0" class="barbell-label" font-size="9px">0.903</text><text x="40" y="230" class="barbell-label" text-anchor="middle" font-size="8px">0.823</text><text x="360" y="230" class="barbell-label" text-anchor="middle" font-size="8px">0.903</text></svg>